# xmcd
#
# Track frame offsets:
#	150
#	15734
#	31270
#	45854
#	60286
#	79506
#	89267
#	100564
#	110705
#	125480
#	142271
#	156619
#	170599
#
# Disc length: 2428 seconds
#
# Revision: 0
# Processed by: cddbd v1.4PL0 Copyright (c) Steve Scherf et al.
# Submitted via: dBpowerAMP V4.0
#
DISCID=a1097a0d
DTITLE=Mike Allen - Blues, Boogie and Roots
DYEAR=2003
DGENRE=Blues
TTITLE0=Make sure you get Paid
TTITLE1=Steel Strings
TTITLE2=Busted Dusted
TTITLE3=Door in the Floor
TTITLE4=Good Intention Blues
TTITLE5=So Good
TTITLE6=Mother Nature
TTITLE7=Martha's Menagerie
TTITLE8=Magic Place
TTITLE9=Cheshire Cat
TTITLE10=Stuck in the Glue
TTITLE11=All the Animals
TTITLE12=Don't Stop Now
EXTD=Singer-guitarist Mike Allen has been delighting audiences everywhere with his rootsy music, unique acoustic guitar style and freewheeling stage personality. On this CD, he feautires 13 original songs based on the blues and folk forms he has always 
EXTD=loved. Based in Burlington, Ontario, he plays clubs and festivals throughout the Hamilton and Toronto area. He also teaches guitar, and many of his students have become outstanding musicians.
EXTT0=
EXTT1=
EXTT2=
EXTT3=
EXTT4=
EXTT5=
EXTT6=
EXTT7=
EXTT8=
EXTT9=
EXTT10=
EXTT11=
EXTT12=
PLAYORDER=
